<?xml version="1.0" standalone="no"?>
<!DOCTYPE svg PUBLIC "-//W3C//DTD SVG 20010904//EN"
 "http://www.w3.org/TR/2001/REC-SVG-20010904/DTD/svg10.dtd">
<svg version="1.0" xmlns="http://www.w3.org/2000/svg"
 width="1024.000000pt" height="1024.000000pt" viewBox="0 0 1024.000000 1024.000000"
 preserveAspectRatio="xMidYMid meet">

<g transform="translate(0.000000,1024.000000) scale(0.100000,-0.100000)"
fill="#4ade80" stroke="none">
<path d="M5790 8213 c-240 -42 -433 -141 -614 -314 -209 -200 -358 -450 -423
-709 -7 -30 -15 -37 -53 -48 -100 -29 -234 -86 -311 -132 -89 -54 -183 -130
-200 -163 -16 -29 9 -72 74 -123 91 -72 86 -72 191 -15 123 66 217 103 356
137 106 27 129 29 305 29 164 0 203 -3 283 -23 169 -42 302 -94 389 -153 23
-16 55 -29 71 -29 31 0 92 39 155 98 51 49 49 78 -6 129 -109 100 -274 187
-474 249 -136 43 -133 38 -107 125 49 165 183 334 319 400 58 28 81 34 136 34
86 0 113 -18 156 -105 62 -124 146 -184 258 -183 125 1 231 69 283 181 23 49
27 70 27 152 0 85 -3 102 -29 155 -43 88 -143 183 -247 234 -128 63 -216 81
-378 80 -75 -1 -147 -4 -161 -6z"/>
<path d="M3320 6650 c-362 -94 -602 -416 -651 -875 -14 -130 -7 -397 16 -595
71 -616 277 -1258 579 -1805 215 -388 514 -764 801 -1005 238 -201 516 -337
797 -391 156 -30 393 -23 544 14 212 54 392 148 444 232 49 80 11 137 -117
174 -313 91 -516 221 -799 514 -496 511 -809 1074 -984 1768 -71 282 -102 522
-102 789 -1 303 42 504 163 760 56 119 58 127 48 165 -16 58 -115 152 -210
198 -159 78 -362 100 -529 57z"/>
<path d="M6536 6651 c-174 -49 -350 -174 -375 -268 -13 -47 -8 -65 68 -251 23
-56 53 -145 66 -197 47 -183 50 -259 37 -854 -23 -1021 -20 -1074 64 -1250 62
-127 146 -212 270 -273 87 -42 91 -43 190 -43 95 0 103 2 150 30 60 37 108
111 190 293 213 473 364 1130 381 1652 9 281 -14 435 -95 644 -90 229 -305
434 -537 509 -91 29 -316 34 -409 8z"/>
<path d="M4943 6362 c-39 -10 -111 -38 -159 -61 -74 -35 -103 -57 -175 -130
-73 -74 -94 -103 -137 -192 -33 -67 -57 -132 -67 -183 -96 -485 38 -1196 332
-1756 201 -384 576 -847 811 -1004 93 -61 213 -120 302 -147 113 -35 275 -33
384 4 96 34 169 81 193 124 29 54 13 78 -115 163 -61 41 -133 95 -158 120
-164 157 -273 349 -329 581 -46 191 -49 278 -35 1119 14 858 15 834 -50 976
-82 182 -220 307 -409 371 -103 35 -281 42 -388 15z"/>
</g>
</svg>
